<svg version="1.1" xmlns="http://www.w3.org/2000/svg" xmlns:xlink="http://www.w3.org/1999/xlink" width="120" height="52.287" viewBox="0,0,120,52.287"><defs><linearGradient x1="180.0001" y1="180.0002" x2="299.9996" y2="180.0002" gradientUnits="userSpaceOnUse" id="color-1"><stop offset="0" stop-color="#27aae1"/><stop offset="1" stop-color="#115489"/></linearGradient><linearGradient x1="184.5035" y1="180.0002" x2="295.4967" y2="180.0002" gradientUnits="userSpaceOnUse" id="color-2"><stop offset="0" stop-color="#2f7eba"/><stop offset="0.506" stop-color="#3f9dd6"/><stop offset="1" stop-color="#3e97d1"/></linearGradient></defs><g transform="translate(-180,-153.8565)"><g data-paper-data="{&quot;isPaintingLayer&quot;:true}" fill-rule="nonzero" stroke="none" stroke-width="1" stroke-linecap="butt" stroke-linejoin="miter" stroke-miterlimit="10" stroke-dasharray="" stroke-dashoffset="0" style="mix-blend-mode: normal"><path d="M300,179.9995c0,14.416 -11.729,26.144 -26.144,26.144h-67.713c-14.415,0 -26.143,-11.727 -26.143,-26.144c0,-14.415 11.727,-26.143 26.143,-26.143h67.713c14.415,0 26.144,11.728 26.144,26.143z" fill="url(#color-1)"/><path d="M295.497,179.9995c0,11.952 -9.688,21.641 -21.64,21.641h-67.713c-11.952,0 -21.641,-9.689 -21.641,-21.641v0c0,-11.951 9.689,-21.64 21.641,-21.64h67.713c11.952,0 21.64,9.689 21.64,21.64z" fill="url(#color-2)"/><text transform="translate(189.83699,175.88484) scale(0.35668,0.35668)" font-size="40" xml:space="preserve" fill="#000000" fill-rule="nonzero" stroke="none" stroke-width="1" stroke-linecap="butt" stroke-linejoin="miter" stroke-miterlimit="10" stroke-dasharray="" stroke-dashoffset="0" font-family="Sans Serif" font-weight="normal" text-anchor="start" style="mix-blend-mode: normal"><tspan x="0" dy="0">     Ask chat</tspan><tspan x="0" dy="46.15px">gpt something</tspan></text></g></g></svg>